<?xml version="1.0" encoding="iso-8859-1"?>
<!-- Generator: Adobe Illustrator 18.0.0, SVG Export Plug-In . SVG Version: 6.00 Build 0)  -->
<!DOCTYPE svg PUBLIC "-//W3C//DTD SVG 1.1//EN" "http://www.w3.org/Graphics/SVG/1.1/DTD/svg11.dtd">
<svg version="1.1" id="Capa_1" xmlns="http://www.w3.org/2000/svg" xmlns:xlink="http://www.w3.org/1999/xlink" x="0px" y="0px"
	 viewBox="0 0 294.583 294.583" style="enable-background:new 0 0 294.583 294.583;" xml:space="preserve" fill="white">
<g>
	<path d="M60.11,52.637h174.363c8.284,0,15-6.716,15-15s-6.716-15-15-15h-39.995c1.329-2.239,2.106-4.844,2.106-7.637
		c0-8.284-6.716-15-15-15h-68.587c-8.284,0-15,6.716-15,15c0,2.793,0.777,5.397,2.106,7.637H60.11c-8.284,0-15,6.716-15,15
		S51.826,52.637,60.11,52.637z"/>
	<path d="M244.014,78.231c-5.063-5.372-12.117-8.418-19.499-8.418H70.068c-7.382,0-14.437,3.046-19.499,8.418
		c-5.062,5.372-7.684,12.596-7.245,19.964l10.186,171.188c0.842,14.153,12.565,25.2,26.743,25.2h134.078
		c14.178,0,25.901-11.047,26.743-25.2l10.186-171.188C251.698,90.827,249.076,83.604,244.014,78.231z M95.587,256.847
		c-0.29,0.023-0.58,0.033-0.866,0.033c-5.964,0-11.006-4.603-11.456-10.646L74.32,126.207c-0.473-6.334,4.279-11.851,10.613-12.322
		c6.347-0.483,11.851,4.28,12.322,10.613l8.945,120.026C106.673,250.857,101.921,256.375,95.587,256.847z M158.792,245.379
		c0,6.351-5.148,11.5-11.5,11.5c-6.352,0-11.5-5.149-11.5-11.5V125.353c0-6.352,5.148-11.5,11.5-11.5c6.352,0,11.5,5.148,11.5,11.5
		V245.379z M220.263,126.207l-8.945,120.026c-0.45,6.043-5.493,10.646-11.456,10.646c-0.287,0-0.575-0.011-0.866-0.033
		c-6.334-0.472-11.086-5.989-10.613-12.322l8.945-120.026c0.472-6.334,5.982-11.093,12.322-10.613
		C215.984,114.356,220.736,119.873,220.263,126.207z"/>
</g>
<g>
</g>
<g>
</g>
<g>
</g>
<g>
</g>
<g>
</g>
<g>
</g>
<g>
</g>
<g>
</g>
<g>
</g>
<g>
</g>
<g>
</g>
<g>
</g>
<g>
</g>
<g>
</g>
<g>
</g>
</svg>
